<?xml version="1.0" encoding="UTF-8"?> <svg xmlns="http://www.w3.org/2000/svg" viewBox="0 0 320 95"><title>CDAC_Logo_RGB_v01Full</title><g style="isolation:isolate"><path d="M83.33087,24.80475a10,10,0,0,0-10,10,13.5,13.5,0,0,1-13.5,13.5,10,10,0,1,0,10,10,13.5,13.5,0,0,1,13.5-13.5,10,10,0,0,0,0-20Z" style="fill:#9ab5c6;fill-rule:evenodd;opacity:0.7000000000000001"></path><path d="M36.33087,71.80475a13.5,13.5,0,1,1,0-27,10,10,0,1,0-10-10,13.5,13.5,0,0,1-13.5,13.5,10,10,0,0,0,0,20,13.5,13.5,0,0,1,13.5,13.5,10,10,0,1,0,10-10Z" style="fill:maroon;fill-rule:evenodd"></path><path d="M36.29716,48.25635a13.5,13.5,0,1,0,0-27,10,10,0,1,1,10-10,13.5,13.5,0,0,0,13.5,13.5,10,10,0,1,1,0,20,13.5,13.5,0,0,0-13.5,13.5,10,10,0,1,1-10-10Z" style="fill:#00b0ef;fill-rule:evenodd"></path><path d="M106.33087,71.80475a13.5,13.5,0,1,1,0-27,10,10,0,1,0-10-10,13.5,13.5,0,0,1-13.5,13.5,10,10,0,0,0,0,20,13.5,13.5,0,0,1,13.5,13.5,10,10,0,1,0,10-10Z" style="fill:#00c6ba;fill-rule:evenodd"></path><circle cx="106.83086" cy="58.30475" r="10" style="fill:#9ab5c6;opacity:0.7000000000000001"></circle><g style="mix-blend-mode:multiply"><path d="M137.65234,34.69971v-.24756c0-5.8291,3.6294-9.78858,8.71631-9.78858a8.08577,8.08577,0,0,1,6.18653,2.55713l-2.39209,3.07959a5.36909,5.36909,0,0,0-3.93164-1.9248c-2.585,0-4.48194,2.39258-4.48194,6.13183v.08252c0,3.82178,1.97949,6.15918,4.53662,6.15918a5.41317,5.41317,0,0,0,3.95948-2.00732l2.39209,2.832a8.3568,8.3568,0,0,1-6.51661,2.88721C141.062,44.46094,137.65234,40.584,137.65234,34.69971Z"></path><path d="M153.71045,36.98193v-.24755c0-4.37159,2.72217-7.56153,6.43408-7.56153,4.207,0,6.269,3.437,6.269,7.83643,0,.22021,0,.6875-.02734,1.26513H157.5874a3.148,3.148,0,0,0,3.18946,2.96973,4.29819,4.29819,0,0,0,3.07959-1.45752l2.00732,2.36475a6.80647,6.80647,0,0,1-5.25195,2.36474C156.70752,44.51611,153.71045,41.57373,153.71045,36.98193Zm8.936-1.29248c-.16455-2.03466-1.04443-3.29931-2.50195-3.29931-1.42969,0-2.36474,1.21-2.58447,3.29931Z"></path><path d="M168.69629,29.44775h3.9043v1.98a4.50857,4.50857,0,0,1,3.79443-2.25488c2.75,0,4.34473,1.92481,4.34473,4.97705V44.186H176.835V35.30469c0-1.73242-.76953-2.61231-2.08935-2.61231-1.29249,0-2.145.87989-2.145,2.61231V44.186h-3.9043Z"></path><path d="M184.06738,40.50146v-7.7539h-1.48486V29.44775h1.48486v-3.7666h3.9043v3.7666h2.91455v3.29981h-2.91455V39.7041c0,.85254.38477,1.26465,1.21,1.26465a3.7778,3.7778,0,0,0,1.67725-.41211v3.10693a5.67264,5.67264,0,0,1-2.88721.77C185.7168,44.43359,184.06738,43.55371,184.06738,40.50146Z"></path><path d="M192.17871,36.98193v-.24755c0-4.37159,2.72217-7.56153,6.43408-7.56153,4.207,0,6.26905,3.437,6.26905,7.83643,0,.22021,0,.6875-.02735,1.26513h-8.79883a3.14833,3.14833,0,0,0,3.18946,2.96973,4.29819,4.29819,0,0,0,3.07959-1.45752l2.00732,2.36475a6.80645,6.80645,0,0,1-5.25195,2.36474C195.17578,44.51611,192.17871,41.57373,192.17871,36.98193Zm8.93652-1.29248c-.165-2.03466-1.04492-3.29931-2.50244-3.29931-1.42968,0-2.36474,1.21-2.58447,3.29931Z"></path><path d="M207.16455,29.44775h3.9043v2.61231c.71533-1.78711,1.897-2.96973,3.98681-2.85938v4.23438h-.165c-2.3916,0-3.82177,1.48486-3.82177,4.56445V44.186h-3.9043Z"></path><path d="M223.46973,32.74756h-1.48438V29.55811h1.48438v-.99024a4.45605,4.45605,0,0,1,1.10058-3.29932,4.35043,4.35043,0,0,1,3.2168-1.10009,7.87538,7.87538,0,0,1,2.41992.33008v3.21728a4.71249,4.71249,0,0,0-1.42969-.24756c-.9082,0-1.43066.46729-1.43066,1.51221v.57764H230.207v3.18945h-2.832V44.186h-3.90527Z"></path><path d="M230.9502,37.00928V36.707c0-4.37207,2.96972-7.53418,6.95605-7.53418,3.9873,0,6.90137,3.10742,6.90137,7.50684v.30224c0,4.37207-2.94141,7.53418-6.92871,7.53418S230.9502,41.40869,230.9502,37.00928Zm10.00878-.05469v-.19238c0-2.39258-1.21-4.207-3.08007-4.207-1.95215,0-3.08008,1.78711-3.08008,4.1792v.19287c0,2.36425,1.23828,4.20654,3.10742,4.20654C239.83105,41.13379,240.959,39.34668,240.959,36.95459Z"></path><path d="M246.84277,29.44775h3.9043v2.61231c.71484-1.78711,1.89746-2.96973,3.98731-2.85938v4.23438h-.165c-2.39258,0-3.82227,1.48486-3.82227,4.56445V44.186h-3.9043Z"></path><path d="M262.90039,24.93848h6.21387c5.582,0,9.18359,3.84961,9.18359,9.48632v.24756c0,5.63672-3.60156,9.51368-9.18359,9.51368h-6.21387Zm3.98731,3.60205V40.584h2.19921c3.02442,0,5.08692-2.11718,5.08692-5.939v-.1377c0-3.82177-2.0625-5.96679-5.08692-5.96679Z"></path><path d="M279.75684,39.979v-.165c0-3.24462,2.11718-4.70166,5.1416-4.70166a7.97019,7.97019,0,0,1,3.0791.605v-.43995c0-1.70507-1.01758-2.585-2.77734-2.585a8.3708,8.3708,0,0,0-3.38184.8252l-1.07227-3.05225a10.54586,10.54586,0,0,1,5.03223-1.18213,6.15354,6.15354,0,0,1,4.48145,1.51221,6.11546,6.11546,0,0,1,1.51269,4.4541V44.186H287.9502V42.59131a4.53126,4.53126,0,0,1-3.82227,1.86963A4.19881,4.19881,0,0,1,279.75684,39.979Zm8.27636-.63232v-1.2373a5.27244,5.27244,0,0,0-2.17285-.46729c-1.42969,0-2.33691.71484-2.33691,2.062v.05518a1.73354,1.73354,0,0,0,1.89746,1.84228A2.33361,2.33361,0,0,0,288.0332,39.34668Z"></path><path d="M294.96191,40.50146v-7.7539h-1.48437V29.44775h1.48437v-3.7666h3.90528v3.7666h2.91406v3.29981h-2.91406V39.7041c0,.85254.38476,1.26465,1.209,1.26465a3.77826,3.77826,0,0,0,1.67774-.41211v3.10693a5.67214,5.67214,0,0,1-2.88672.77C296.6123,44.43359,294.96191,43.55371,294.96191,40.50146Z"></path><path d="M303.294,39.979v-.165c0-3.24462,2.11718-4.70166,5.1416-4.70166a7.97019,7.97019,0,0,1,3.0791.605v-.43995c0-1.70507-1.01758-2.585-2.77735-2.585a8.37079,8.37079,0,0,0-3.38183.8252l-1.07227-3.05225a10.54586,10.54586,0,0,1,5.03223-1.18213,6.15354,6.15354,0,0,1,4.48145,1.51221,6.11546,6.11546,0,0,1,1.51269,4.4541V44.186H311.4873V42.59131a4.53123,4.53123,0,0,1-3.82226,1.86963A4.19881,4.19881,0,0,1,303.294,39.979Zm8.27636-.63232v-1.2373a5.27244,5.27244,0,0,0-2.17285-.46729c-1.42969,0-2.33691.71484-2.33691,2.062v.05518a1.73354,1.73354,0,0,0,1.89746,1.84228A2.33361,2.33361,0,0,0,311.57031,39.34668Z"></path><path d="M137.2124,67.479v-.165c0-3.24462,2.11719-4.70166,5.14209-4.70166a7.97011,7.97011,0,0,1,3.0791.605v-.43995c0-1.70507-1.01709-2.585-2.77685-2.585a8.37123,8.37123,0,0,0-3.38233.8252l-1.07226-3.05225a10.54583,10.54583,0,0,1,5.03223-1.18213,5.32335,5.32335,0,0,1,5.99414,5.96631V71.686h-3.82227V70.09131a4.531,4.531,0,0,1-3.82178,1.86963A4.199,4.199,0,0,1,137.2124,67.479Zm8.27637-.63232v-1.2373a5.26656,5.26656,0,0,0-2.17236-.46729c-1.42969,0-2.33692.71484-2.33692,2.062v.05518a1.73363,1.73363,0,0,0,1.897,1.84228A2.3331,2.3331,0,0,0,145.48877,66.84668Z"></path><path d="M151.95068,56.94775h3.9043v1.98a4.5086,4.5086,0,0,1,3.79443-2.25488c2.75,0,4.34473,1.92481,4.34473,4.97705V71.686h-3.90478V62.80469c0-1.73242-.76954-2.61231-2.08936-2.61231-1.29248,0-2.145.87989-2.145,2.61231V71.686h-3.9043Z"></path><path d="M166.22168,64.53711v-.43994c0-5.03174,2.667-7.42432,5.60937-7.42432a4.82483,4.82483,0,0,1,3.98682,2.17236V51.8335h3.9043V71.686h-3.9043V69.65137a4.65622,4.65622,0,0,1-3.98682,2.30957C168.916,71.96094,166.22168,69.56885,166.22168,64.53711Zm9.65137-.08252v-.2749c0-2.50244-1.26514-4.09717-2.88721-4.09717-1.62256,0-2.85986,1.59473-2.85986,4.09717v.2749c0,2.502,1.2373,4.09668,2.85986,4.09668C174.60791,68.55127,175.87305,66.95654,175.87305,64.45459Z"></path><path d="M188.13672,62.19971v-.24756c0-5.8291,3.62939-9.78858,8.71631-9.78858a8.08575,8.08575,0,0,1,6.18652,2.55713l-2.39209,3.07959a5.36908,5.36908,0,0,0-3.93164-1.9248c-2.585,0-4.48193,2.39258-4.48193,6.13183v.08252c0,3.82178,1.97949,6.15918,4.53662,6.15918A5.41315,5.41315,0,0,0,200.73,66.2417l2.39209,2.832a8.35678,8.35678,0,0,1-6.5166,2.88721C191.54639,71.96094,188.13672,68.084,188.13672,62.19971Z"></path><path d="M204.22217,64.50928V64.207c0-4.37207,2.96972-7.53418,6.95654-7.53418,3.98731,0,6.90137,3.10742,6.90137,7.50684v.30224c0,4.37207-2.94141,7.53418-6.92871,7.53418C207.16455,72.01611,204.22217,68.90869,204.22217,64.50928Zm10.0083-.05469v-.19238c0-2.39258-1.209-4.207-3.0791-4.207-1.95215,0-3.07959,1.78711-3.07959,4.1792v.19287c0,2.36425,1.2373,4.20654,3.10693,4.20654C213.10352,68.63379,214.23047,66.84668,214.23047,64.45459Z"></path><path d="M220.25293,56.94775h3.9043v1.98a4.5092,4.5092,0,0,1,3.82226-2.25488,3.88744,3.88744,0,0,1,3.62891,2.145,5.26144,5.26144,0,0,1,4.17969-2.145c2.6123,0,4.37207,1.70508,4.37207,4.94971V71.686h-3.877V62.80469c0-1.70459-.74218-2.61231-2.03515-2.61231-1.292,0-2.08887.90772-2.08887,2.61231V71.686h-3.90527V62.80469c0-1.70459-.71485-2.61231-2.00684-2.61231s-2.08984.90772-2.08984,2.61231V71.686h-3.9043Z"></path><path d="M242.96582,56.94775h3.9043v2.03516a4.65745,4.65745,0,0,1,3.9873-2.31006c2.91406,0,5.60938,2.39258,5.60938,7.42432v.43994c0,5.03174-2.668,7.42383-5.60938,7.42383a4.784,4.784,0,0,1-3.9873-2.17237v6.04932h-3.9043Zm9.5957,7.50684v-.2749c0-2.50244-1.2373-4.09717-2.85937-4.09717s-2.88672,1.59473-2.88672,4.09717v.2749c0,2.502,1.26465,4.09668,2.88672,4.09668S252.56152,66.95654,252.56152,64.45459Z"></path><path d="M258.584,66.98438V56.94775h3.877V65.8291c0,1.73242.77051,2.61231,2.08984,2.61231,1.32031,0,2.14551-.87989,2.14551-2.61231V56.94775h3.9043V71.686h-3.9043v-1.9795a4.4616,4.4616,0,0,1-3.76758,2.2544C260.15137,71.96094,258.584,70.03613,258.584,66.98438Z"></path><path d="M274.06445,68.00146v-7.7539h-1.48437V56.94775h1.48437v-3.7666h3.90528v3.7666h2.91406v3.29981h-2.91406V67.2041c0,.85254.38476,1.26465,1.209,1.26465a3.77826,3.77826,0,0,0,1.67774-.41211v3.10693a5.67217,5.67217,0,0,1-2.88672.77C275.71484,71.93359,274.06445,71.05371,274.06445,68.00146Z"></path><path d="M283.2207,51.8335H287.29v3.54736H283.2207Zm.083,5.11425h3.9043V71.686h-3.9043Z"></path><path d="M290.2334,56.94775h3.9043v1.98a4.50873,4.50873,0,0,1,3.79492-2.25488c2.749,0,4.34375,1.92481,4.34375,4.97705V71.686h-3.9043V62.80469c0-1.73242-.76953-2.61231-2.08984-2.61231-1.292,0-2.14453.87989-2.14453,2.61231V71.686h-3.9043Z"></path><path d="M304.834,74.65576l1.21-3.0249a8.65074,8.65074,0,0,0,4.17968,1.07275c2.44727,0,3.62989-1.12744,3.62989-3.49218v-.93506a4.92132,4.92132,0,0,1-4.125,2.31006c-2.91407,0-5.499-2.28223-5.499-6.9292v-.08252c0-4.647,2.61231-6.90186,5.499-6.90186a4.97353,4.97353,0,0,1,4.09668,2.17236V56.94775h3.90527V68.99121a7.05077,7.05077,0,0,1-1.67774,5.14209c-1.2373,1.21-3.10742,1.75977-5.60937,1.75977A13.0114,13.0114,0,0,1,304.834,74.65576Zm9.04688-11.02637v-.02734c0-2.17236-1.23731-3.57422-2.8877-3.57422-1.64941,0-2.85937,1.40186-2.85937,3.57422v.02734c0,2.22754,1.21,3.60206,2.85937,3.60206C312.64355,67.23145,313.88086,65.8291,313.88086,63.62939Z"></path><path d="M139.76318,83.19336H141.252l2.708,7.59473H142.3418l-.561-1.63965h-2.6001l-.55029,1.63965h-1.57471Zm1.543,4.57422-.82031-2.46-.83057,2.46Z" style="fill:#748390"></path><path d="M145.78369,84.68213h-1.89844v-1.4458h5.35059v1.4458H147.3374v6.106h-1.55371Z" style="fill:#748390"></path><path d="M154.5874,84.68213H152.689v-1.4458h5.35059v1.4458h-1.89844v6.106H154.5874Z" style="fill:#748390"></path><path d="M159.31348,83.23633h1.564v3.03174h2.48145V83.23633h1.564v7.55176h-1.564V87.71338h-2.48145v3.07471h-1.564Z" style="fill:#748390"></path><path d="M166.6499,83.23633h4.86524V84.6499h-3.312v1.62891h2.9126v1.41308h-2.9126V89.375h3.355v1.41309H166.6499Z" style="fill:#748390"></path><path d="M175.54,87.85352V83.23633h1.564v4.62842c0,1.06787.50733,1.59619,1.31641,1.59619s1.31592-.51758,1.31592-1.564V83.23633H181.29v4.585c0,2.082-1.14356,3.08545-2.89111,3.08545C176.66162,90.90674,175.54,89.89258,175.54,87.85352Z" style="fill:#748390"></path><path d="M182.91992,83.23633h1.43457l2.89112,4.40185V83.23633h1.53173v7.55176h-1.3374l-2.98828-4.56348v4.56348h-1.53174Z" style="fill:#748390"></path><path d="M190.55859,83.23633h1.56446v7.55176h-1.56446Z" style="fill:#748390"></path><path d="M193.33154,83.23633h1.69336l1.59668,5.20019,1.59668-5.20019h1.65039l-2.5459,7.59472h-1.44531Z" style="fill:#748390"></path><path d="M201.02393,83.23633h4.86523V84.6499h-3.312v1.62891h2.9126v1.41308h-2.9126V89.375h3.355v1.41309h-4.9082Z" style="fill:#748390"></path><path d="M207.37891,83.23633h2.83691a2.80773,2.80773,0,0,1,2.0498.72314,2.3893,2.3893,0,0,1,.63672,1.74756v.043a2.28007,2.28007,0,0,1-1.40283,2.2334l1.60791,2.80469h-1.791l-1.39161-2.48145h-.98193v2.48145h-1.564Zm2.71826,3.68945a1.08868,1.08868,0,0,0,1.23-1.13232v-.01123c0-.75489-.46387-1.13233-1.26221-1.13233h-1.12207v2.27588Z" style="fill:#748390"></path><path d="M213.80957,89.77393l.92773-1.1543a2.89729,2.89729,0,0,0,1.877.85254c.60449,0,.9707-.30225.9707-.74463V88.7168c0-.37744-.21582-.61475-1.29394-1.02491-1.3379-.51757-2.16895-1.0249-2.16895-2.31933v-.02149a2.24078,2.24078,0,0,1,2.4707-2.21142,3.59069,3.59069,0,0,1,2.43848.92773l-.874,1.18653a2.64418,2.64418,0,0,0-1.60743-.70118c-.54,0-.874.26954-.874.65821v.01074c0,.43115.25879.63623,1.43457,1.12158,1.31641.51807,2.02832,1.0791,2.02832,2.25488v.02149a2.28248,2.28248,0,0,1-2.53515,2.26562A4.05446,4.05446,0,0,1,213.80957,89.77393Z" style="fill:#748390"></path><path d="M220.56348,83.23633H222.127v7.55176h-1.56347Z" style="fill:#748390"></path><path d="M225.35352,84.68213H223.4541v-1.4458h5.35156v1.4458h-1.89941v6.106h-1.55273Z" style="fill:#748390"></path><path d="M231.83691,87.81055l-2.46-4.57422h1.76953l1.48926,2.96679,1.499-2.96679h1.72656l-2.46,4.55273v2.999h-1.56446Z" style="fill:#748390"></path><path d="M239.28223,87.08789V86.9585c0-2.26563,1.42382-3.85157,3.41992-3.85157,2.00683,0,3.40918,1.5752,3.40918,3.83008v.1294c0,2.25439-1.42384,3.85107-3.41992,3.85107C240.68457,90.91748,239.28223,89.34229,239.28223,87.08789Zm5.21093-.03223V86.98c0-1.48877-.75586-2.42725-1.80175-2.42725-1.05762,0-1.80176.92774-1.80176,2.41651v.07519c0,1.48877.76562,2.42774,1.8125,2.42774S244.49316,88.544,244.49316,87.05566Z" style="fill:#748390"></path><path d="M247.56738,83.23633h4.86524v1.43506h-3.30078v1.69384h2.90234V87.7998h-2.90234v2.98829h-1.56446Z" style="fill:#748390"></path><path d="M256.12305,87.06641v-.09717c0-2.28711,1.42383-3.84082,3.41992-3.84082a3.17464,3.17464,0,0,1,2.42773,1.00342l-.93945,1.20849a2.10628,2.10628,0,0,0-1.542-.75537c-1.01465,0-1.75879.93848-1.75879,2.40576V87.023c0,1.49951.77637,2.4165,1.78027,2.4165a2.12591,2.12591,0,0,0,1.55371-.78759l.93848,1.11132a3.27955,3.27955,0,0,1-2.55664,1.13282C257.46094,90.896,256.12305,89.375,256.12305,87.06641Z" style="fill:#748390"></path><path d="M263.28711,83.23633h1.56445v3.03174H267.333V83.23633h1.56445v7.55176H267.333V87.71338h-2.48145v3.07471h-1.56445Z" style="fill:#748390"></path><path d="M270.67871,83.23633h1.56348v7.55176h-1.56348Z" style="fill:#748390"></path><path d="M273.75293,87.06641v-.09717c0-2.28711,1.42383-3.84082,3.41992-3.84082a3.17468,3.17468,0,0,1,2.42774,1.00342l-.93946,1.20849a2.10627,2.10627,0,0,0-1.542-.75537c-1.01465,0-1.75879.93848-1.75879,2.40576V87.023c0,1.49951.77637,2.4165,1.78027,2.4165a2.12594,2.12594,0,0,0,1.55372-.78759l.93847,1.11132a3.27955,3.27955,0,0,1-2.55664,1.13282C275.09082,90.896,273.75293,89.375,273.75293,87.06641Z" style="fill:#748390"></path><path d="M283.05273,83.19336H284.541l2.708,7.59473h-1.61816l-.56152-1.63965h-2.59961l-.54981,1.63965h-1.57519Zm1.542,4.57422-.81934-2.46-.83105,2.46Z" style="fill:#748390"></path><path d="M287.75684,87.06641v-.09717a3.62848,3.62848,0,0,1,5.998-2.95606l-.92773,1.21924a2.14375,2.14375,0,0,0-1.56445-.64746c-1.07813,0-1.89844.98193-1.89844,2.37354v.08593c0,1.55371.85254,2.42774,1.96386,2.42774a1.91061,1.91061,0,0,0,1.1211-.313V87.82129h-1.36914V86.46191h2.8584v3.49561a4.38069,4.38069,0,0,1-2.68653.93848C289.22363,90.896,287.75684,89.42871,287.75684,87.06641Z" style="fill:#748390"></path><path d="M295.22266,87.08789V86.9585c0-2.26563,1.42382-3.85157,3.41992-3.85157,2.00683,0,3.40918,1.5752,3.40918,3.83008v.1294c0,2.25439-1.42383,3.85107-3.41992,3.85107C296.625,90.91748,295.22266,89.34229,295.22266,87.08789Zm5.21093-.03223V86.98c0-1.48877-.75586-2.42725-1.80175-2.42725-1.05762,0-1.80176.92774-1.80176,2.41651v.07519c0,1.48877.76562,2.42774,1.8125,2.42774S300.43359,88.544,300.43359,87.05566Z" style="fill:#748390"></path></g></g></svg> 